<svg preserveAspectRatio="none" width="100%" height="100%" overflow="visible" style="display: block;" viewBox="0 0 207 596.774" fill="none" xmlns="http://www.w3.org/2000/svg">
<g id="Dependencies" clip-path="url(#clip0_0_776)">
<g id="Faded lines" opacity="0.5">
<path id="Path" opacity="0.3" fill-rule="evenodd" clip-rule="evenodd" d="M0.447084 10.7361C134.682 19.6274 201.263 85.7789 201.263 207.407H205.808C205.808 78.0162 137.042 9.69367 0.582702 0.655063L0.447084 10.7361Z" fill="var(--fill-0, #BB35A7)"/>
<path id="Path_2" opacity="0.3" fill-rule="evenodd" clip-rule="evenodd" d="M0.436182 102.544C57.8646 103.641 124.398 169.931 199.912 301.937L205.979 284.752C128.912 150.03 60.4674 81.8362 0.520463 80.6915L0.436182 102.544Z" fill="var(--fill-0, #F23346)"/>
<path id="Path_3" opacity="0.3" fill-rule="evenodd" clip-rule="evenodd" d="M205.659 390.002C181.935 390.002 161.343 407.546 133.3 446.475C129.572 451.65 125.713 457.174 120.775 464.365C119.148 466.736 110.484 479.417 107.986 483.048C88.6748 511.114 75.5139 528.226 60.675 543.104C41.696 562.134 22.6635 573.925 2.1282 578.103L1.19237 556.359C20.5409 552.423 38.4801 541.309 56.4678 523.273C70.7196 508.983 83.4948 492.373 102.403 464.892C104.884 461.287 113.542 448.614 115.184 446.222C120.178 438.949 124.094 433.344 127.894 428.069C157.405 387.102 179.634 368.163 205.659 368.163V390.002Z" fill="var(--fill-0, #255FCC)"/>
<path id="Path_4" opacity="0.3" fill-rule="evenodd" clip-rule="evenodd" d="M0.298056 174.623C103.98 199.766 171.684 290.092 203.576 445.581L205.659 443.501C173.399 286.222 104.973 194.931 0.547694 169.609L0.298056 174.623Z" fill="var(--fill-0, #F0369E)"/>
<path id="Path_5" opacity="0.3" fill-rule="evenodd" clip-rule="evenodd" d="M205.808 19.0004C205.714 19.0911 205.522 19.277 205.238 19.5574C204.759 20.0284 204.193 20.5921 203.543 21.2476C201.68 23.1251 199.517 25.3596 197.079 27.944C190.106 35.3361 182.334 44.0449 173.962 54.0145C150.04 82.5003 126.119 115.361 103.804 152.139C51.6658 238.067 16.3907 331.7 5.64539 430.553L1.19222 428.207C7.08169 374.026 20.1924 321.168 39.5201 269.865C56.1188 225.806 76.9551 183.795 101.06 144.069C123.57 106.969 147.677 73.8532 171.783 45.1475C180.221 35.1001 188.057 26.3198 195.093 18.8613C197.558 16.248 199.747 13.9858 201.637 12.0816C202.299 11.4135 202.878 10.8375 203.369 10.3544C203.665 10.0623 203.868 9.86496 203.974 9.76307L205.808 19.0004Z" fill="var(--fill-0, #18A272)"/>
<path id="Path_6" opacity="0.3" fill-rule="evenodd" clip-rule="evenodd" d="M0.478323 295.025C79.2533 295.025 144.108 366.845 206.464 532.546V503.842C150.819 351.362 82.0508 274.853 0.478323 274.853V295.025Z" fill="var(--fill-0, #E1E000)"/>
<path id="Path_7" opacity="0.3" fill-rule="evenodd" clip-rule="evenodd" d="M0.298056 289.076C75.2228 307.705 143.392 406.144 203.884 569.905L206.851 564.608C145.78 399.28 76.7754 299.634 0.727485 280.726L0.298056 289.076Z" fill="var(--fill-0, #E1E000)"/>
<path id="Path_8" opacity="0.3" fill-rule="evenodd" clip-rule="evenodd" d="M0.298056 473.45C134.906 455.91 201.675 325.4 201.675 80.8051H207C207 332.146 137.847 467.317 0.611466 485.201L0.298056 473.45Z" fill="var(--fill-0, #219AE1)"/>
<path id="Path_9" opacity="0.3" fill-rule="evenodd" clip-rule="evenodd" d="M3.17429 445.374C94.9446 400.159 167.681 466.085 206.851 611.802V585.794C165.519 432.035 96.5823 378.654 1.19222 425.653L3.17429 445.374Z" fill="var(--fill-0, #18A272)"/>
<path id="Path_10" opacity="0.3" fill-rule="evenodd" clip-rule="evenodd" d="M0.956645 170.848C62.2293 156.38 128.513 224.532 199.812 376.281L206.079 361.703C133.028 206.228 64.3337 135.597 0 150.788L0.956645 170.848Z" fill="var(--fill-0, #F0369E)"/>
<path id="Path_11" opacity="0.3" fill-rule="evenodd" clip-rule="evenodd" d="M205.808 102.694C189.339 103.718 166.884 121.76 138.503 156.877C115.106 185.827 91.5172 227.375 69.6004 280.448C44.1439 342.092 21.6777 417.396 3.30033 506.15L1.19223 504.076C19.6672 414.851 42.2642 339.109 67.8813 277.076C89.9631 223.603 113.747 181.713 137.361 152.494C166.042 117.006 188.815 98.7079 205.742 97.6553L205.808 102.694Z" fill="var(--fill-0, #219AE1)"/>
<path id="Path_12" opacity="0.3" fill-rule="evenodd" clip-rule="evenodd" d="M0.653379 9.58396C135.796 -6.52206 203.184 175.26 203.184 557.154H207C207 170.86 138.026 -15.2007 0.447084 1.19573L0.653379 9.58396Z" fill="var(--fill-0, #BB35A7)"/>
<path id="Path_13" opacity="0.3" fill-rule="evenodd" clip-rule="evenodd" d="M0.447084 582.456C135.025 573.555 201.867 507.246 201.867 385.013H205.659C205.659 513.712 136.994 581.831 0.560232 590.854L0.447084 582.456Z" fill="var(--fill-0, #255FCC)"/>
<path id="Path_14" opacity="0.3" fill-rule="evenodd" clip-rule="evenodd" d="M0.447084 84.7244C134.422 80.8244 205.746 44.5972 205.746 -6.63141L205.808 6.84883C202.849 43.077 137.691 89.1077 0.497105 93.1013L0.447084 84.7244Z" fill="var(--fill-0, #F23346)"/>
<path id="Path_15" opacity="0.3" fill-rule="evenodd" clip-rule="evenodd" d="M0.447084 347.002C135.143 343.087 203.036 313.485 203.036 262.055H206.851C206.851 321.57 138.43 351.403 0.497374 355.412L0.447084 347.002Z" fill="var(--fill-0, #A3DA22)"/>
<path id="Path_16" opacity="0.3" fill-rule="evenodd" clip-rule="evenodd" d="M0.149028 367.133C104.416 334.284 171.707 236.569 202.3 73.9742L205.808 77.2011C174.651 242.792 106.185 342.212 0.684916 375.449L0.149028 367.133Z" fill="var(--fill-0, #A3DA22)"/>
</g>
<g id="Path_17" filter="url(#filter0_d_0_776)">
<path fill-rule="evenodd" clip-rule="evenodd" d="M0.894168 220.069C51.8605 217.417 96.0618 195.259 131.736 157.02C163.654 122.808 191.849 68.3184 205.808 17.0496L205.548 30.5932C191.11 83.6198 166.38 131.105 133.703 166.131C97.4256 205.017 52.5906 227.493 1.00009 230.177L0.894168 220.069Z" fill="var(--fill-0, #FF8F2E)"/>
</g>
<g id="Path_18" filter="url(#filter1_d_0_776)">
<path fill-rule="evenodd" clip-rule="evenodd" d="M0.894168 225.492C135.299 221.615 203.045 192.302 203.045 141.374H206.851C206.851 200.308 138.578 229.85 0.944349 233.82L0.894168 225.492Z" fill="var(--fill-0, #FF8F2E)"/>
</g>
</g>
<defs>
<filter id="filter0_d_0_776" x="-7.10583" y="8.04958" width="220.914" height="229.127" filterUnits="userSpaceOnUse" color-interpolation-filters="sRGB">
<feFlood flood-opacity="0" result="BackgroundImageFix"/>
<feColorMatrix in="SourceAlpha" type="matrix" values="0 0 0 0 0 0 0 0 0 0 0 0 0 0 0 0 0 0 127 0" result="hardAlpha"/>
<feOffset dy="-1"/>
<feGaussianBlur stdDeviation="4"/>
<feColorMatrix type="matrix" values="0 0 0 0 1 0 0 0 0 0.572549 0 0 0 0 0.196078 0 0 0 0.8 0"/>
<feBlend mode="normal" in2="BackgroundImageFix" result="effect1_dropShadow_0_776"/>
<feBlend mode="normal" in="SourceGraphic" in2="effect1_dropShadow_0_776" result="shape"/>
</filter>
<filter id="filter1_d_0_776" x="-7.10583" y="132.374" width="221.957" height="108.446" filterUnits="userSpaceOnUse" color-interpolation-filters="sRGB">
<feFlood flood-opacity="0" result="BackgroundImageFix"/>
<feColorMatrix in="SourceAlpha" type="matrix" values="0 0 0 0 0 0 0 0 0 0 0 0 0 0 0 0 0 0 127 0" result="hardAlpha"/>
<feOffset dy="-1"/>
<feGaussianBlur stdDeviation="4"/>
<feColorMatrix type="matrix" values="0 0 0 0 1 0 0 0 0 0.466667 0 0 0 0 0 0 0 0 0.8 0"/>
<feBlend mode="normal" in2="BackgroundImageFix" result="effect1_dropShadow_0_776"/>
<feBlend mode="normal" in="SourceGraphic" in2="effect1_dropShadow_0_776" result="shape"/>
</filter>
<clipPath id="clip0_0_776">
<rect width="207" height="596.774" fill="white"/>
</clipPath>
</defs>
</svg>
